<svg width="15" height="12" viewBox="0 0 15 12" fill="none" xmlns="http://www.w3.org/2000/svg">
<path d="M14.3121 1.85138C14.3121 1.01296 13.49 0.333313 12.4759 0.333313H2.11203C1.09787 0.333313 0.275757 1.01296 0.275757 1.85138V10.4192C0.275757 11.2577 1.09787 11.9373 2.11203 11.9373H12.4758C13.49 11.9373 14.3121 11.2577 14.3121 10.4192V1.85138ZM5.09288 7.38886C4.25545 7.38886 3.57657 6.82762 3.57657 6.13531C3.57657 5.443 4.25545 4.88177 5.09288 4.88177C5.93031 4.88177 6.60919 5.443 6.60919 6.13531C6.60919 6.82762 5.93031 7.38886 5.09288 7.38886ZM9.54528 7.38886C8.70785 7.38886 8.02897 6.82762 8.02897 6.13531C8.02897 5.443 8.70785 4.88177 9.54528 4.88177C10.3827 4.88177 11.0616 5.443 11.0616 6.13531C11.0616 6.82762 10.3827 7.38886 9.54528 7.38886Z" fill="#383A3F"/>
</svg>
